<svg width="252" height="106" viewBox="0 0 252 106" fill="none" xmlns="http://www.w3.org/2000/svg"><path d="M.57919 83.1193H48.5053V104H60.2383V83.1193H74.1587V72.1818H60.2383V2.18182H45.3235L.57919 72.9773V83.1193zM48.5053 72.1818H13.9031V71.3864L47.7099 17.892H48.5053V72.1818zM126 105.392C148.472 105.392 161.398 86.3509 161.398 53.0909 161.398 20.0795 148.273.789769 126 .789769 103.727.789769 90.6023 20.0795 90.6023 53.0909 90.6023 86.3509 103.528 105.392 126 105.392zm0-10.9375C111.185 94.4545 102.534 79.5895 102.534 53.0909 102.534 26.642 111.284 11.5284 126 11.5284 140.716 11.5284 149.466 26.642 149.466 53.0909 149.466 79.5895 140.815 94.4545 126 94.4545zM177.903 83.1193H225.83V104h11.732V83.1193H251.483V72.1818H237.562V2.18182H222.648L177.903 72.9773V83.1193zM225.83 72.1818H191.227V71.3864L225.034 17.892H225.83V72.1818z" fill="#000"/></svg>