<svg width="16" height="16" viewBox="0 0 16 16" fill="none" xmlns="http://www.w3.org/2000/svg"><path fill-rule="evenodd" clip-rule="evenodd" d="M9.11127 9.59655C7.39296 11.3149 4.60704 11.3149 2.88873 9.59655 1.17042 7.87824 1.17042 5.09232 2.88873 3.37401 4.60704 1.6557 7.39296 1.6557 9.11127 3.37401 10.8296 5.09232 10.8296 7.87824 9.11127 9.59655zM9.63973 11.2561C7.28746 13.0554 3.90875 12.8793 1.75736 10.7279-.585786 8.38478-.585786 4.58579 1.75736 2.24264 4.10051-.100505 7.89949-.100505 10.2426 2.24264 12.3939 4.39394 12.5701 7.77244 10.7711 10.1247L15.0511 14.4047 13.9197 15.5361 9.63973 11.2561z" fill="#fff"/></svg>